<svg version="1.0" xmlns="http://www.w3.org/2000/svg"
 width="135.000000pt" height="145.000000pt" viewBox="0 0 135.000000 145.000000"
 preserveAspectRatio="xMidYMid meet">
<metadata>
Created by potrace 1.15, written by Peter Selinger 2001-2017
</metadata>
<g transform="translate(0.000000,145.000000) scale(0.100000,-0.100000)"
fill="#ffffff" stroke="none">
<path d="M60 938 l0 -453 302 -214 c166 -118 307 -214 314 -214 6 0 147 96
313 214 l301 214 0 453 0 452 -615 0 -615 0 0 -452z m1078 -35 l-3 -337 -215
-154 c-118 -84 -222 -157 -231 -162 -12 -7 -70 29 -245 154 l-229 162 -3 337
-2 337 465 0 465 0 -2 -337z"/>
<path d="M562 1118 c-36 -60 -271 -485 -278 -502 -6 -15 3 -16 86 -14 l92 3
97 175 c53 96 102 183 107 194 10 16 27 -11 120 -178 l109 -196 93 0 94 0 -39
68 c-21 38 -90 162 -153 275 l-115 207 -97 0 -96 0 -20 -32z"/>
</g>
</svg>
